<?xml version="1.0" standalone="no"?>
<!DOCTYPE svg PUBLIC "-//W3C//DTD SVG 20010904//EN"
 "http://www.w3.org/TR/2001/REC-SVG-20010904/DTD/svg10.dtd">
<svg version="1.0" xmlns="http://www.w3.org/2000/svg"
 width="454.000000pt" height="454.000000pt" viewBox="0 0 454.000000 454.000000"
 preserveAspectRatio="xMidYMid meet">
<metadata>
Created by potrace 1.11, written by Peter Selinger 2001-2013
</metadata>
<g transform="translate(0.000000,454.000000) scale(0.100000,-0.100000)"
fill="#000000" stroke="none">
<path d="M1547 3305 c-49 -20 -134 -67 -434 -243 -68 -40 -125 -72 -127 -72
-3 0 -41 -22 -86 -50 -45 -27 -83 -50 -85 -50 -1 0 -91 -52 -199 -115 -109
-63 -201 -115 -207 -115 -5 0 -9 -3 -9 -8 0 -4 -15 -14 -32 -21 -33 -15 -70
-38 -141 -87 -40 -28 -105 -115 -112 -152 -2 -12 -6 -26 -10 -31 -13 -21 -13
-126 0 -176 18 -68 64 -142 111 -180 20 -16 113 -74 208 -128 463 -268 579
-335 676 -390 58 -33 112 -66 121 -74 9 -7 19 -10 22 -6 4 3 7 1 7 -5 0 -7 4
-12 9 -12 4 0 64 -32 132 -72 151 -87 217 -110 304 -103 142 11 281 125 311
257 12 48 11 132 -1 177 -35 134 -75 169 -453 386 -172 99 -333 191 -357 204
-25 13 -45 26 -45 30 0 5 25 21 144 89 23 13 70 41 106 62 36 21 153 89 260
151 226 130 257 153 299 216 129 194 23 474 -200 530 -61 15 -160 9 -212 -12z"/>
<path d="M2805 3319 c-84 -19 -185 -95 -223 -168 -58 -110 -60 -213 -9 -324
39 -82 91 -129 227 -204 30 -17 163 -93 295 -169 132 -77 257 -148 277 -159
28 -14 35 -22 26 -32 -6 -7 -14 -13 -18 -13 -4 0 -80 -43 -169 -95 -90 -52
-166 -95 -169 -95 -3 0 -13 -6 -21 -14 -9 -7 -47 -30 -86 -51 -38 -21 -74 -41
-80 -45 -5 -4 -32 -20 -60 -35 -139 -77 -204 -141 -239 -235 -79 -215 82 -456
311 -466 83 -3 140 14 249 77 111 65 147 85 204 117 24 14 83 48 130 76 47 28
99 59 116 68 16 9 67 38 114 65 47 26 93 52 103 58 9 5 130 75 269 155 303
174 351 215 388 329 44 138 7 278 -99 372 -31 27 -66 52 -78 56 -13 3 -23 9
-23 14 0 5 -4 9 -10 9 -5 0 -33 14 -62 31 -56 33 -309 180 -488 282 -58 34
-106 64 -108 69 -2 4 -11 8 -20 8 -8 0 -23 6 -31 13 -22 19 -161 97 -172 97
-5 0 -9 5 -9 10 0 6 -4 10 -9 10 -7 0 -92 47 -199 111 -144 85 -219 103 -327
78z"/>
</g>
</svg>
